<?xml version="1.0" encoding="utf-8"?>
<svg viewBox="0 0 500 500" xmlns="http://www.w3.org/2000/svg">
  <path d="M 39.592 121.229 L 455.592 121.229 C 464.429 121.229 471.592 114.066 471.592 105.229 L 471.592 65.229 C 471.592 56.392 464.429 49.229 455.592 49.229 L 39.592 49.229 C 30.755 49.229 23.592 56.392 23.592 65.229 L 23.592 105.229 C 23.592 114.066 30.755 121.229 39.592 121.229 Z M 39.592 281.229 L 455.592 281.229 C 464.429 281.229 471.592 274.066 471.592 265.229 L 471.592 225.229 C 471.592 216.392 464.429 209.229 455.592 209.229 L 39.592 209.229 C 30.755 209.229 23.592 216.392 23.592 225.229 L 23.592 265.229 C 23.592 274.066 30.755 281.229 39.592 281.229 Z M 39.592 441.229 L 455.592 441.229 C 464.429 441.229 471.592 434.066 471.592 425.229 L 471.592 385.229 C 471.592 376.392 464.429 369.229 455.592 369.229 L 39.592 369.229 C 30.755 369.229 23.592 376.392 23.592 385.229 L 23.592 425.229 C 23.592 434.066 30.755 441.229 39.592 441.229 Z" style="fill: rgb(241, 241, 241);"/>
</svg>