<?xml version="1.0" encoding="utf-8"?>
<svg viewBox="0 0 550 500" xmlns="http://www.w3.org/2000/svg">
  <path d="M 63.448 28.742 C 36.948 28.742 15.448 50.242 15.448 76.742 L 15.448 428.742 C 15.448 455.242 36.948 476.742 63.448 476.742 L 479.448 476.742 C 505.948 476.742 527.448 455.242 527.448 428.742 L 527.448 76.742 C 527.448 50.242 505.948 28.742 479.448 28.742 L 63.448 28.742 Z M 63.448 60.742 L 169.448 60.742 C 172.748 60.742 175.448 63.442 175.448 66.742 L 175.448 86.742 C 175.448 90.042 172.748 92.742 169.448 92.742 L 53.448 92.742 C 50.148 92.742 47.448 90.042 47.448 86.742 L 47.448 76.742 C 47.448 67.942 54.648 60.742 63.448 60.742 Z M 489.448 156.742 L 53.448 156.742 C 50.148 156.742 47.448 154.042 47.448 150.742 L 47.448 114.742 C 47.448 111.442 50.148 108.742 53.448 108.742 L 191.448 108.742 L 221.648 63.442 C 222.748 61.742 224.648 60.742 226.648 60.742 L 479.448 60.742 C 488.248 60.742 495.448 67.942 495.448 76.742 L 495.448 150.742 C 495.448 154.042 492.748 156.742 489.448 156.742 Z M 271.448 420.742 C 205.248 420.742 151.448 366.942 151.448 300.742 C 151.448 234.542 205.248 180.742 271.448 180.742 C 337.648 180.742 391.448 234.542 391.448 300.742 C 391.448 366.942 337.648 420.742 271.448 420.742 Z M 271.448 212.742 C 222.948 212.742 183.448 252.242 183.448 300.742 C 183.448 349.242 222.948 388.742 271.448 388.742 C 319.948 388.742 359.448 349.242 359.448 300.742 C 359.448 252.242 319.948 212.742 271.448 212.742 Z M 223.448 316.742 C 214.648 316.742 207.448 309.542 207.448 300.742 C 207.448 265.442 236.148 236.742 271.448 236.742 C 280.248 236.742 287.448 243.942 287.448 252.742 C 287.448 261.542 280.248 268.742 271.448 268.742 C 253.848 268.742 239.448 283.142 239.448 300.742 C 239.448 309.542 232.248 316.742 223.448 316.742 Z" style="fill: rgb(244, 244, 244);"/>
</svg>