<?xml version="1.0" encoding="utf-8"?>
<svg viewBox="0 0 550 500" xmlns="http://www.w3.org/2000/svg">
  <path d="M 272.579 22.65 C 131.179 22.65 16.579 115.75 16.579 230.65 C 16.579 278.25 36.479 321.85 69.479 356.95 C 54.579 396.35 23.579 429.75 23.079 430.15 C 16.479 437.15 14.679 447.35 18.479 456.15 C 22.279 464.95 30.979 470.65 40.579 470.65 C 102.079 470.65 150.579 444.95 179.679 424.35 C 208.579 433.45 239.779 438.65 272.579 438.65 C 413.979 438.65 528.579 345.55 528.579 230.65 C 528.579 115.75 413.979 22.65 272.579 22.65 Z M 272.579 390.65 C 245.879 390.65 219.479 386.55 194.179 378.55 L 171.479 371.35 L 151.979 385.15 C 137.679 395.25 118.079 406.55 94.479 414.15 C 101.779 402.05 108.879 388.45 114.379 373.95 L 124.979 345.85 L 104.379 324.05 C 86.279 304.75 64.579 272.85 64.579 230.65 C 64.579 142.45 157.879 70.65 272.579 70.65 C 387.279 70.65 480.579 142.45 480.579 230.65 C 480.579 318.85 387.279 390.65 272.579 390.65 Z" style="fill: rgba(0, 0, 0, 0.8);"/>
</svg>