<?xml version="1.0" encoding="utf-8"?>
<svg viewBox="0 0 550 500" xmlns="http://www.w3.org/2000/svg">
  <path d="M 475.127 53.462 C 417.327 4.862 328.027 12.162 272.727 68.462 C 217.427 12.162 128.127 4.762 70.327 53.462 C -4.873 116.762 6.127 219.962 59.727 274.662 L 235.127 453.362 C 245.127 463.562 258.527 469.262 272.727 469.262 C 287.027 469.262 300.327 463.662 310.327 453.462 L 485.727 274.762 C 539.227 220.062 550.427 116.862 475.127 53.462 Z M 451.527 240.962 L 276.127 419.662 C 273.727 422.062 271.727 422.062 269.327 419.662 L 93.927 240.962 C 57.427 203.762 50.027 133.362 101.227 90.262 C 140.127 57.562 200.127 62.462 237.727 100.762 L 272.727 136.462 L 307.727 100.762 C 345.527 62.262 405.527 57.562 444.227 90.162 C 495.327 133.262 487.727 204.062 451.527 240.962 Z" style="fill: rgba(0, 0, 0, 0.8);"/>
</svg>