<?xml version="1.0" encoding="utf-8"?>
<svg viewBox="0 0 500 500" xmlns="http://www.w3.org/2000/svg">
  <path d="M 420.638 468.914 L 68.638 468.914 C 42.138 468.914 20.638 447.414 20.638 420.914 L 20.638 68.914 C 20.638 42.414 42.138 20.914 68.638 20.914 L 420.638 20.914 C 447.138 20.914 468.638 42.414 468.638 68.914 L 468.638 420.914 C 468.638 447.414 447.138 468.914 420.638 468.914 Z M 258.738 166.814 L 123.038 302.514 L 116.738 359.614 C 115.938 367.214 122.338 373.714 130.038 372.914 L 187.138 366.614 L 322.838 230.914 C 325.138 228.614 325.138 224.814 322.838 222.414 L 267.338 166.914 C 264.838 164.514 261.038 164.514 258.738 166.814 Z M 365.638 154.014 L 335.538 123.914 C 326.138 114.514 310.938 114.514 301.638 123.914 L 278.538 147.014 C 276.238 149.314 276.238 153.114 278.538 155.514 L 334.038 211.014 C 336.338 213.314 340.138 213.314 342.538 211.014 L 365.638 187.914 C 374.938 178.614 374.938 163.414 365.638 154.014 Z" style="fill: rgb(166, 81, 200);"/>
</svg>