<?xml version="1.0" encoding="utf-8"?>
<svg viewBox="0 0 550 550" xmlns="http://www.w3.org/2000/svg">
  <path d="M 522.663 38.666 C 521.473 33.134 516.004 27.666 510.456 26.478 C 478.258 19.572 453.049 19.572 427.95 19.572 C 324.718 19.572 262.811 74.775 216.595 147.572 L 112.38 147.572 C 96.032 147.588 76.823 159.447 69.493 174.056 L 20.058 272.869 C 18.53 276.239 17.676 279.874 17.542 283.572 C 17.547 296.827 28.293 307.57 41.548 307.572 L 145.359 307.572 L 122.884 330.041 C 111.519 341.402 109.888 362.299 122.884 375.291 L 173.788 426.197 C 184.944 437.384 205.944 439.353 219.065 426.197 L 241.54 403.728 L 241.54 507.572 C 241.545 520.827 252.291 531.57 265.546 531.572 C 269.244 531.435 272.881 530.581 276.253 529.056 L 374.981 479.666 C 389.61 472.369 401.489 453.166 401.489 436.806 L 401.489 332.369 C 474.086 286.056 529.524 223.963 529.524 121.275 C 529.618 96.072 529.618 70.869 522.663 38.666 Z M 401.583 187.572 C 370.791 187.565 351.554 154.227 366.956 127.564 C 382.359 100.901 420.849 100.91 436.238 127.58 C 439.746 133.659 441.592 140.554 441.592 147.572 C 441.58 169.662 423.673 187.565 401.583 187.572 Z" style="fill: rgb(244, 244, 244);"/>
</svg>