<?xml version="1.0" encoding="utf-8"?>
<svg viewBox="0 0 500 550" xmlns="http://www.w3.org/2000/svg">
  <path d="M 480.18 336.669 L 437.58 312.069 C 441.88 288.869 441.88 265.069 437.58 241.869 L 480.18 217.269 C 485.08 214.469 487.28 208.669 485.68 203.269 C 474.58 167.669 455.68 135.469 430.98 108.669 C 427.18 104.569 420.98 103.569 416.18 106.369 L 373.58 130.969 C 355.68 115.569 335.08 103.669 312.78 95.869 L 312.78 46.769 C 312.78 41.169 308.88 36.269 303.38 35.069 C 266.68 26.869 229.08 27.269 194.18 35.069 C 188.68 36.269 184.78 41.169 184.78 46.769 L 184.78 95.969 C 162.58 103.869 141.98 115.769 123.98 131.069 L 81.48 106.469 C 76.58 103.669 70.48 104.569 66.68 108.769 C 41.98 135.469 23.08 167.669 11.98 203.369 C 10.28 208.769 12.58 214.569 17.48 217.369 L 60.08 241.969 C 55.78 265.169 55.78 288.969 60.08 312.169 L 17.48 336.769 C 12.58 339.569 10.38 345.369 11.98 350.769 C 23.08 386.369 41.98 418.569 66.68 445.369 C 70.48 449.469 76.68 450.469 81.48 447.669 L 124.08 423.069 C 141.98 438.469 162.58 450.369 184.88 458.169 L 184.88 507.369 C 184.88 512.969 188.78 517.869 194.28 519.069 C 230.98 527.269 268.58 526.869 303.48 519.069 C 308.98 517.869 312.88 512.969 312.88 507.369 L 312.88 458.169 C 335.08 450.269 355.68 438.369 373.68 423.069 L 416.28 447.669 C 421.18 450.469 427.28 449.569 431.08 445.369 C 455.78 418.669 474.68 386.469 485.78 350.769 C 487.28 345.269 485.08 339.469 480.18 336.669 Z M 248.78 356.969 C 204.68 356.969 168.78 321.069 168.78 276.969 C 168.78 232.869 204.68 196.969 248.78 196.969 C 292.88 196.969 328.78 232.869 328.78 276.969 C 328.78 321.069 292.88 356.969 248.78 356.969 Z"/>
</svg>