<?xml version="1.0" encoding="utf-8"?>
<svg viewBox="0 0 550 550" xmlns="http://www.w3.org/2000/svg">
  <path d="M 533.981 44.208 C 522.373 82.91 499.673 155.91 472.677 231.909 C 479.676 234.002 486.082 235.909 491.284 237.502 C 500.952 240.449 505.528 251.485 500.783 260.408 C 478.677 302.705 418.092 413.203 358.304 474.812 C 357.305 475.906 356.305 477.312 355.305 478.312 C 249.266 584.378 68.172 535.879 29.336 391.013 C 11.312 323.781 30.525 252.041 79.738 202.815 C 80.737 201.815 82.143 200.815 83.237 199.815 C 144.837 139.91 255.211 79.41 297.61 57.317 C 306.533 52.571 317.569 57.149 320.513 66.817 C 322.107 71.911 324.013 78.41 326.106 85.41 C 402.001 58.411 475.083 35.708 513.781 24.114 C 525.705 20.508 537.062 31.162 534.223 43.292 C 534.151 43.6 534.07 43.905 533.981 44.208 Z M 342.604 343.407 C 342.59 244.888 235.931 183.328 150.617 232.6 C 65.304 281.872 65.321 405.021 150.649 454.268 C 170.1 465.495 192.164 471.406 214.623 471.406 C 285.313 471.409 342.616 414.097 342.604 343.407 Z M 214.623 311.408 C 214.62 336.037 187.955 351.427 166.627 339.109 C 145.298 326.791 145.303 296.004 166.634 283.692 C 171.497 280.886 177.013 279.408 182.628 279.408 C 200.309 279.388 214.646 293.727 214.623 311.408 Z M 246.618 391.407 C 246.617 403.721 233.284 411.416 222.62 405.257 C 211.956 399.099 211.958 383.705 222.624 377.549 C 225.055 376.146 227.813 375.407 230.621 375.407 C 239.445 375.435 246.591 382.582 246.618 391.407 Z"/>
</svg>