<?xml version="1.0" encoding="utf-8"?>
<svg viewBox="0 0 500 550" xmlns="http://www.w3.org/2000/svg">
  <path d="M 89.823 242.559 L 103.323 242.559 C 128.023 299.059 184.223 338.559 249.823 338.559 C 315.423 338.559 371.623 299.059 396.323 242.559 L 409.823 242.559 C 418.623 242.559 425.823 235.359 425.823 226.559 L 425.823 130.559 C 425.823 121.759 418.623 114.559 409.823 114.559 L 396.323 114.559 C 371.623 58.059 315.423 18.559 249.823 18.559 C 184.223 18.559 128.023 58.059 103.323 114.559 L 89.823 114.559 C 81.023 114.559 73.823 121.759 73.823 130.559 L 73.823 226.559 C 73.823 235.359 81.023 242.559 89.823 242.559 Z M 129.823 154.559 C 129.823 132.459 151.323 114.559 177.823 114.559 L 321.823 114.559 C 348.323 114.559 369.823 132.459 369.823 154.559 L 369.823 178.559 C 369.823 231.559 326.823 274.559 273.823 274.559 L 225.823 274.559 C 172.823 274.559 129.823 231.559 129.823 178.559 L 129.823 154.559 Z M 201.823 226.559 L 213.823 190.559 L 249.823 178.559 L 213.823 166.559 L 201.823 130.559 L 189.823 166.559 L 153.823 178.559 L 189.823 190.559 L 201.823 226.559 Z M 353.423 339.959 C 323.523 359.259 288.023 370.559 249.823 370.559 C 211.623 370.559 176.123 359.259 146.223 339.959 C 78.723 347.059 25.823 403.559 25.823 472.959 L 25.823 482.559 C 25.823 509.059 47.323 530.559 73.823 530.559 L 153.823 530.559 L 153.823 466.559 C 153.823 448.859 168.123 434.559 185.823 434.559 L 313.823 434.559 C 331.523 434.559 345.823 448.859 345.823 466.559 L 345.823 530.559 L 425.823 530.559 C 452.323 530.559 473.823 509.059 473.823 482.559 L 473.823 472.959 C 473.823 403.559 420.923 347.059 353.423 339.959 Z M 297.823 466.559 C 289.023 466.559 281.823 473.759 281.823 482.559 C 281.823 491.359 289.023 498.559 297.823 498.559 C 306.623 498.559 313.823 491.359 313.823 482.559 C 313.823 473.759 306.623 466.559 297.823 466.559 Z M 201.823 466.559 C 193.023 466.559 185.823 473.759 185.823 482.559 L 185.823 530.559 L 217.823 530.559 L 217.823 482.559 C 217.823 473.759 210.623 466.559 201.823 466.559 Z" style="fill: rgb(244, 244, 244);"/>
</svg>